<svg width="132" height="40" viewBox="0 0 132 40" fill="none" xmlns="http://www.w3.org/2000/svg"><path d="M59.5625 26.6413C57.1831 26.6413 55.2642 24.7219 55.2642 22.3419C55.2642 19.9619 57.1831 18.0425 59.5625 18.0425C61.9419 18.0425 63.8608 19.9619 63.8608 22.3419C63.8992 24.7219 61.9419 26.6413 59.5625 26.6413V26.6413Z" fill="#FF8300"></path><path d="M126.877 26.6413C124.498 26.6413 122.579 24.7219 122.579 22.3419C122.579 19.9619 124.498 18.0425 126.877 18.0425C129.256 18.0425 131.175 19.9619 131.175 22.3419C131.175 24.7219 129.256 26.6413 126.877 26.6413V26.6413Z" fill="#06B7A7"></path><path d="M4.29834 26.6413C1.9189 26.6413 0 24.7219 0 22.3419C0 19.9619 1.9189 18.0425 4.29834 18.0425C6.67778 18.0425 8.59668 19.9619 8.59668 22.3419C8.59668 24.7219 6.67778 26.6413 4.29834 26.6413V26.6413Z" fill="#0295F5"></path><path fill-rule="evenodd" clip-rule="evenodd" d="M22.335 6.06396C18.1901 6.06396 14.8129 9.44208 14.8129 13.588C14.8129 17.7722 18.1901 21.1503 22.335 21.1503C26.4798 21.1503 29.8571 17.7722 29.8571 13.6263C29.8571 9.44208 26.4798 6.06396 22.335 6.06396V6.06396ZM22.2197 27.2548C18.3819 27.2548 15.1197 25.9113 12.51 23.2625C9.90031 20.6522 8.59546 17.3508 8.59546 13.4353C8.59546 9.71165 9.93869 6.52547 12.5868 3.9151C15.2349 1.30474 18.5354 -0.00044597 22.3348 -0.00044597C26.1726 -0.00044597 29.4347 1.34312 32.1212 3.95349C34.7693 6.56386 36.1125 9.82681 36.1125 13.6272C36.1125 17.466 34.7693 20.7289 32.1212 23.3393C29.4347 25.9497 26.0958 27.2548 22.2197 27.2548V27.2548ZM108.84 6.06396C104.695 6.06396 101.318 9.44208 101.318 13.588C101.318 17.7722 104.695 21.1503 108.84 21.1503C112.985 21.1503 116.362 17.7722 116.362 13.6263C116.362 9.44208 112.985 6.06396 108.84 6.06396V6.06396ZM108.724 27.2543C104.887 27.2543 101.625 25.9107 99.0149 23.262C96.4052 20.6516 95.1003 17.3503 95.1003 13.4347C95.1003 9.71112 96.4435 6.52494 99.0916 3.91457C101.74 1.30421 105.002 -0.000976562 108.84 -0.000976562C112.677 -0.000976562 115.94 1.34259 118.626 3.95296C121.274 6.56332 122.617 9.82628 122.617 13.6267C122.617 17.4654 121.274 20.7284 118.626 23.3388C115.901 25.9491 112.601 27.2543 108.724 27.2543V27.2543ZM56.0323 15.3528V1.30292C56.0323 0.957435 56.3393 0.650333 56.6847 0.650333H62.5949C62.9403 0.650333 63.2474 0.957435 63.2474 1.30292V15.3528C63.2474 15.6983 62.9403 16.0054 62.5949 16.0054H56.6847C56.3009 16.0054 56.0323 15.7367 56.0323 15.3528V15.3528ZM79.0201 6.10289C75.0288 6.17966 71.6899 9.481 71.6131 13.5117C71.5748 15.5463 72.3423 17.4657 73.7623 18.9244C75.1823 20.3831 77.1012 21.1893 79.1352 21.1893H79.2887C83.28 21.1125 86.6189 17.8111 86.6957 13.7804C86.7341 11.7459 85.9665 9.82649 84.5465 8.36776C83.1265 6.90903 81.2076 6.10289 79.1736 6.10289H79.0201ZM80.2871 39.999C76.8714 39.999 73.9931 39.0393 71.7671 37.1967C69.4644 35.2773 68.1212 32.5902 67.7758 29.2505L67.7374 29.0585C67.6991 28.8282 67.8909 28.5979 68.1212 28.5979H74.1849C74.3768 28.5979 74.5303 28.7514 74.5687 28.9434L74.6071 29.0969C74.799 30.2101 75.1444 31.0931 75.6049 31.6689C76.6795 33.0892 78.2146 33.7418 80.3254 33.7418C84.1632 33.7418 86.0054 31.4002 86.0054 26.6401V26.1411C86.0054 25.834 85.6984 25.642 85.4297 25.7956C83.5108 26.7553 81.3616 27.2543 79.0206 27.2543C75.1828 27.2543 71.9206 25.9107 69.3109 23.262C66.7012 20.6516 65.3964 17.3503 65.3964 13.4347C65.3964 9.71111 66.7396 6.52493 69.3877 3.91457C72.0358 1.30421 75.2979 -0.000976562 79.1357 -0.000976562C81.4384 -0.000976562 83.5492 0.498064 85.4681 1.45776C85.7367 1.57292 86.0438 1.38098 86.0438 1.11227C86.0438 0.881941 86.2356 0.72839 86.4275 0.72839H92.4913C92.7215 0.72839 92.875 0.920328 92.875 1.11227V25.4117C92.875 26.6017 92.8367 27.6382 92.7599 28.5595C92.6832 29.4808 92.568 30.2869 92.4529 30.9779C92.0307 32.9357 91.1864 34.6247 89.9199 36.0451C87.6173 38.6554 84.3551 39.999 80.2871 39.999V39.999ZM45.1327 1.76358C45.1327 2.07068 45.4398 2.26262 45.7084 2.10907C47.5889 1.14937 49.7381 0.650333 52.0408 0.650333C52.4246 0.650333 52.8467 0.650333 53.3073 0.688721V0.688721C53.6143 0.727109 53.8445 0.957435 53.8445 1.26454V6.25494C53.8445 6.60043 53.5375 6.86914 53.1921 6.83076C52.8467 6.79237 52.5013 6.75398 52.1943 6.75398H51.8873C48.1646 6.83076 45.1711 9.97855 45.1711 13.7789V26.0246C45.1711 26.3317 44.9025 26.6004 44.5954 26.6004H38.8771C38.5701 26.6004 38.3014 26.3317 38.3014 26.0246V1.30292C38.3014 0.995823 38.5701 0.727109 38.8771 0.727109H44.5954H44.7873C45.0176 0.727109 45.1711 0.919047 45.1711 1.11099V1.76358H45.1327Z" fill="#0F1015"></path></svg>